<svg width="49" height="24" viewBox="0 0 49 24" fill="none" xmlns="http://www.w3.org/2000/svg">
<g clip-path="url(#clip0_3_674)">
<circle cx="39" cy="12" r="10" fill="#141718"/>
<path d="M35.9281 16V14.6705L39.0346 11.794C39.2988 11.5384 39.5204 11.3082 39.6994 11.1037C39.8812 10.8991 40.019 10.6989 40.1127 10.5028C40.2065 10.304 40.2534 10.0895 40.2534 9.85938C40.2534 9.60369 40.1951 9.38352 40.0787 9.19886C39.9622 9.01136 39.8031 8.8679 39.6014 8.76847C39.3997 8.66619 39.171 8.61506 38.9153 8.61506C38.6483 8.61506 38.4153 8.66903 38.2164 8.77699C38.0176 8.88494 37.8642 9.03977 37.7562 9.24148C37.6483 9.44318 37.5943 9.68324 37.5943 9.96165H35.8429C35.8429 9.39062 35.9721 8.89489 36.2306 8.47443C36.4892 8.05398 36.8514 7.72869 37.3173 7.49858C37.7832 7.26847 38.3201 7.15341 38.9281 7.15341C39.5531 7.15341 40.0971 7.2642 40.5602 7.4858C41.0261 7.70455 41.3883 8.00852 41.6468 8.39773C41.9054 8.78693 42.0346 9.23295 42.0346 9.7358C42.0346 10.0653 41.9693 10.3906 41.8386 10.7116C41.7108 11.0327 41.4821 11.3892 41.1525 11.7812C40.823 12.1705 40.3585 12.6378 39.7591 13.1832L38.4849 14.4318V14.4915H42.1497V16H35.9281Z" fill="white"/>
</g>
<path d="M9 6L9 7C9 8.65685 10.3431 10 12 10C13.6569 10 15 8.65685 15 7V6" stroke="#141718" stroke-width="1.5" stroke-linecap="round" stroke-linejoin="round"/>
<path d="M15.6115 3H8.38851C6.43316 3 4.7644 4.41365 4.44294 6.3424L2.77627 16.3424C2.36992 18.7805 4.25009 21 6.72185 21H17.2782C19.7499 21 21.6301 18.7805 21.2237 16.3424L19.5571 6.3424C19.2356 4.41365 17.5669 3 15.6115 3Z" stroke="#141718" stroke-width="1.5" stroke-linejoin="round"/>
<defs>
<clipPath id="clip0_3_674">
<rect width="20" height="20" fill="white" transform="translate(29 2)"/>
</clipPath>
</defs>
</svg>
