<svg width="71" height="24" viewBox="0 0 71 24" fill="none" xmlns="http://www.w3.org/2000/svg">
<rect width="71" height="24" rx="4" fill="#38CB89"/>
<path d="M20.6143 11.2216V13.142H15.3075V11.2216H20.6143ZM26.9041 18.1591C26.1011 18.1591 25.3852 18.0114 24.7564 17.7159C24.1314 17.4205 23.6352 17.0133 23.2678 16.4943C22.9003 15.9754 22.709 15.3807 22.6939 14.7102H25.0803C25.1068 15.161 25.2962 15.5265 25.6484 15.8068C26.0007 16.0871 26.4193 16.2273 26.9041 16.2273C27.2905 16.2273 27.6314 16.142 27.9268 15.9716C28.2261 15.7973 28.459 15.5568 28.6257 15.25C28.7962 14.9394 28.8814 14.5833 28.8814 14.1818C28.8814 13.7727 28.7943 13.4129 28.62 13.1023C28.4496 12.7917 28.2128 12.5492 27.9098 12.375C27.6068 12.2008 27.2602 12.1117 26.87 12.108C26.5291 12.108 26.1977 12.178 25.8757 12.3182C25.5575 12.4583 25.3094 12.6496 25.1314 12.892L22.9439 12.5L23.495 6.36364H30.6087V8.375H25.5234L25.2223 11.2898H25.2905C25.495 11.0019 25.8037 10.7633 26.2166 10.5739C26.6295 10.3845 27.0916 10.2898 27.603 10.2898C28.3037 10.2898 28.9287 10.4545 29.478 10.7841C30.0272 11.1136 30.4609 11.5663 30.7791 12.142C31.0973 12.714 31.2545 13.3731 31.2507 14.1193C31.2545 14.9034 31.0727 15.6004 30.7053 16.2102C30.3416 16.8163 29.8321 17.2936 29.1768 17.642C28.5253 17.9867 27.7678 18.1591 26.9041 18.1591ZM37.5291 18.2557C36.5518 18.2519 35.7109 18.0114 35.0064 17.5341C34.3056 17.0568 33.7659 16.3655 33.3871 15.4602C33.0121 14.5549 32.8265 13.4659 32.8303 12.1932C32.8303 10.9242 33.0178 9.8428 33.3928 8.94886C33.7715 8.05492 34.3113 7.375 35.0121 6.90909C35.7166 6.43939 36.5556 6.20455 37.5291 6.20455C38.5026 6.20455 39.3397 6.43939 40.0405 6.90909C40.745 7.37879 41.2867 8.06061 41.6655 8.95455C42.0443 9.8447 42.2318 10.9242 42.228 12.1932C42.228 13.4697 42.0386 14.5606 41.6598 15.4659C41.2848 16.3712 40.7469 17.0625 40.0462 17.5398C39.3454 18.017 38.5064 18.2557 37.5291 18.2557ZM37.5291 16.2159C38.1958 16.2159 38.728 15.8807 39.1257 15.2102C39.5234 14.5398 39.7204 13.5341 39.7166 12.1932C39.7166 11.3106 39.6257 10.5758 39.4439 9.98864C39.2659 9.40151 39.0121 8.96023 38.6825 8.66477C38.3568 8.36932 37.9723 8.22159 37.5291 8.22159C36.8662 8.22159 36.3359 8.55303 35.9382 9.21591C35.5405 9.87879 35.3397 10.8712 35.3359 12.1932C35.3359 13.0871 35.425 13.8333 35.603 14.4318C35.7848 15.0265 36.0405 15.4735 36.37 15.7727C36.6996 16.0682 37.0859 16.2159 37.5291 16.2159ZM50.3516 15.8182V15.2045C50.3516 14.7386 50.45 14.3106 50.647 13.9205C50.8478 13.5265 51.1375 13.2121 51.5163 12.9773C51.8989 12.7386 52.3648 12.6193 52.9141 12.6193C53.4709 12.6193 53.9387 12.7367 54.3175 12.9716C54.7 13.2064 54.9879 13.5208 55.1811 13.9148C55.3781 14.3049 55.4766 14.7348 55.4766 15.2045V15.8182C55.4766 16.2841 55.3781 16.714 55.1811 17.108C54.9841 17.4981 54.6944 17.8106 54.3118 18.0455C53.9292 18.2841 53.4633 18.4034 52.9141 18.4034C52.3572 18.4034 51.8894 18.2841 51.5107 18.0455C51.1319 17.8106 50.844 17.4981 50.647 17.108C50.45 16.714 50.3516 16.2841 50.3516 15.8182ZM52.005 15.2045V15.8182C52.005 16.0871 52.0694 16.3409 52.1982 16.5795C52.3307 16.8182 52.5694 16.9375 52.9141 16.9375C53.2588 16.9375 53.4936 16.8201 53.6186 16.5852C53.7474 16.3504 53.8118 16.0947 53.8118 15.8182V15.2045C53.8118 14.928 53.7512 14.6705 53.63 14.4318C53.5088 14.1932 53.2701 14.0739 52.9141 14.0739C52.5732 14.0739 52.3364 14.1932 52.2038 14.4318C52.0713 14.6705 52.005 14.928 52.005 15.2045ZM44.38 9.15909V8.54545C44.38 8.07576 44.4804 7.64583 44.6811 7.25568C44.8819 6.86174 45.1716 6.54735 45.5504 6.3125C45.933 6.07765 46.3951 5.96023 46.9368 5.96023C47.4974 5.96023 47.9671 6.07765 48.3459 6.3125C48.7247 6.54735 49.0125 6.86174 49.2095 7.25568C49.4065 7.64583 49.505 8.07576 49.505 8.54545V9.15909C49.505 9.62879 49.4046 10.0587 49.2038 10.4489C49.0069 10.839 48.7171 11.1515 48.3345 11.3864C47.9557 11.6174 47.4898 11.733 46.9368 11.733C46.3838 11.733 45.916 11.6155 45.5334 11.3807C45.1546 11.142 44.8667 10.8295 44.6697 10.4432C44.4766 10.053 44.38 9.625 44.38 9.15909ZM46.0447 8.54545V9.15909C46.0447 9.43561 46.1091 9.69129 46.2379 9.92614C46.3705 10.161 46.6035 10.2784 46.9368 10.2784C47.2853 10.2784 47.522 10.161 47.647 9.92614C47.7758 9.69129 47.8402 9.43561 47.8402 9.15909V8.54545C47.8402 8.26894 47.7796 8.01136 47.6584 7.77273C47.5372 7.53409 47.2966 7.41477 46.9368 7.41477C46.5997 7.41477 46.3667 7.53598 46.2379 7.77841C46.1091 8.02083 46.0447 8.27651 46.0447 8.54545ZM45.13 18L53.13 6.36364H54.6186L46.6186 18H45.13Z" fill="#FEFEFE"/>
</svg>
